<svg width="239" height="492" viewBox="0 0 239 492" fill="none" xmlns="http://www.w3.org/2000/svg">
<path fill-rule="evenodd" clip-rule="evenodd" d="M52.9392 263.5C53.2058 263.73 53.4796 263.959 53.76 264.189C45.0028 264.991 38.1538 272.063 38.1538 280.67V297.226C38.1538 306.37 30.4228 313.782 20.8862 313.782H19.2677C9.731 313.782 2 321.195 2 330.339V346.895C2 356.039 9.731 363.451 19.2677 363.451H38.9631C48.4998 363.451 56.2308 356.039 56.2308 346.895V305.892C56.2308 301.106 60.2774 297.226 65.2692 297.226C70.261 297.226 74.3077 301.106 74.3077 305.892V363.451C74.3077 372.595 66.5767 380.007 57.04 380.007H55.4216C45.8849 380.007 38.1538 387.42 38.1538 396.564V413.12C38.1538 422.264 45.8848 429.676 55.4215 429.676H75.1169C84.6536 429.676 92.3846 422.264 92.3846 413.12V322.448C92.3846 317.662 96.4313 313.782 101.423 313.782C106.415 313.782 110.462 317.662 110.462 322.448V473.444C110.462 482.587 118.193 490 127.729 490H147.425C156.961 490 164.692 482.587 164.692 473.444V456.887C164.692 447.744 156.961 440.331 147.425 440.331H145.806C136.269 440.331 128.538 432.919 128.538 423.775V322.448C128.538 317.662 132.585 313.782 137.577 313.782C142.569 313.782 146.615 317.662 146.615 322.448V413.12C146.615 422.264 154.346 429.676 163.883 429.676H183.578C193.115 429.676 200.846 422.264 200.846 413.12V396.564C200.846 387.42 193.115 380.007 183.578 380.007H181.96C172.423 380.007 164.692 372.595 164.692 363.451V289.336C164.692 284.55 168.739 280.67 173.731 280.67C178.723 280.67 182.769 284.55 182.769 289.336V330.339C182.769 339.482 190.5 346.895 200.037 346.895H219.732C229.269 346.895 237 339.482 237 330.339V313.782C237 304.638 229.269 297.226 219.732 297.226H218.114C208.577 297.226 200.846 289.814 200.846 280.67C200.846 272.018 193.925 264.916 185.101 264.177C185.256 264.058 185.41 263.938 185.561 263.819C187.401 262.37 188.985 260.912 190.106 259.495C191.198 258.116 191.962 256.632 191.918 255.154C191.918 252.829 192.04 250.524 192.272 248.248L192.412 247.031C193.189 240.726 195.281 231.25 198.06 222C200.672 213.304 203.143 205.511 207.019 199.667C208.375 197.34 209.759 196.039 210.922 193.79C219.484 171.415 219.484 152.552 219.484 152.552L219.778 85.2392C219.777 39.9611 176.311 3.16778 122.241 2.02829L119.659 2C64.9412 2.00057 22.8833 33.9924 19.7806 84.0342V86.668L20.1259 153.679C20.1259 153.679 20.8862 189.528 28.6709 198.052L32.6051 202.669C36.4499 208.707 39.4316 216.299 42.0313 224.904C44.8428 234.211 46.7742 243.805 47.2338 250.478L47.355 252.808C47.3817 253.58 47.3941 254.356 47.3944 255.133C47.3678 256.569 48.0256 258.011 48.9942 259.367C49.9722 260.736 51.3475 262.13 52.9392 263.5ZM137.982 456.887C142.75 456.887 146.615 460.594 146.615 465.166C146.615 469.737 142.75 473.444 137.982 473.444H137.172C132.404 473.444 128.538 469.737 128.538 465.166C128.538 460.594 132.404 456.887 137.172 456.887H137.982ZM65.6739 396.564C70.4422 396.564 74.3077 400.27 74.3077 404.842C74.3077 409.414 70.4422 413.12 65.6739 413.12H64.8646C60.0963 413.12 56.2308 409.414 56.2308 404.842C56.2308 400.27 60.0963 396.564 64.8646 396.564H65.6739ZM29.52 330.339C34.2883 330.339 38.1538 334.045 38.1538 338.617C38.1538 343.189 34.2883 346.895 29.52 346.895H28.7108C23.9424 346.895 20.0769 343.189 20.0769 338.617C20.0769 334.045 23.9424 330.339 28.7108 330.339H29.52ZM174.135 396.564C178.904 396.564 182.769 400.27 182.769 404.842C182.769 409.414 178.904 413.12 174.135 413.12H173.326C168.558 413.12 164.692 409.414 164.692 404.842C164.692 400.27 168.558 396.564 173.326 396.564H174.135ZM210.289 313.782C215.058 313.782 218.923 317.489 218.923 322.06C218.923 326.632 215.058 330.339 210.289 330.339H209.48C204.712 330.339 200.846 326.632 200.846 322.06C200.846 317.489 204.712 313.782 209.48 313.782H210.289Z" fill="#025159"/>
<path d="M28.6709 198.052C20.8862 189.528 20.1259 153.679 20.1259 153.679L19.7806 86.668V84.0342C22.8833 33.9924 64.9412 2.00057 119.659 2L122.241 2.02829C176.311 3.16778 219.777 39.9611 219.778 85.2392L219.484 152.552C219.484 152.552 219.484 171.415 210.922 193.79C209.759 196.039 208.375 197.34 207.019 199.667C203.143 205.511 200.672 213.304 198.06 222C195.281 231.25 193.189 240.726 192.412 247.031L192.272 248.248C192.04 250.524 191.918 252.829 191.918 255.154C191.962 256.632 191.198 258.116 190.106 259.495C188.985 260.912 187.401 262.37 185.561 263.819C185.41 263.938 185.256 264.058 185.101 264.177C193.925 264.916 200.846 272.018 200.846 280.67C200.846 289.814 208.577 297.226 218.114 297.226H219.732C229.269 297.226 237 304.638 237 313.782V330.339C237 339.482 229.269 346.895 219.732 346.895H200.037C190.5 346.895 182.769 339.482 182.769 330.339V289.336C182.769 284.55 178.723 280.67 173.731 280.67C168.739 280.67 164.692 284.55 164.692 289.336V363.451C164.692 372.595 172.423 380.007 181.96 380.007H183.578C193.115 380.007 200.846 387.42 200.846 396.564V413.12C200.846 422.264 193.115 429.676 183.578 429.676H163.883C154.346 429.676 146.615 422.264 146.615 413.12V322.448C146.615 317.662 142.569 313.782 137.577 313.782C132.585 313.782 128.538 317.662 128.538 322.448V423.775C128.538 432.919 136.269 440.331 145.806 440.331H147.425C156.961 440.331 164.692 447.744 164.692 456.887V473.444C164.692 482.587 156.961 490 147.425 490H127.729C118.193 490 110.462 482.587 110.462 473.444V322.448C110.462 317.662 106.415 313.782 101.423 313.782C96.4313 313.782 92.3846 317.662 92.3846 322.448V413.12C92.3846 422.264 84.6536 429.676 75.1169 429.676H55.4215C45.8848 429.676 38.1538 422.264 38.1538 413.12V396.564C38.1538 387.42 45.8849 380.007 55.4216 380.007H57.04C66.5767 380.007 74.3077 372.595 74.3077 363.451V305.892C74.3077 301.106 70.261 297.226 65.2692 297.226C60.2774 297.226 56.2308 301.106 56.2308 305.892V346.895C56.2308 356.039 48.4998 363.451 38.9631 363.451H19.2677C9.731 363.451 2 356.039 2 346.895V330.339C2 321.195 9.731 313.782 19.2677 313.782H20.8862C30.4228 313.782 38.1538 306.37 38.1538 297.226V280.67C38.1538 272.063 45.0028 264.991 53.76 264.189C53.4796 263.959 53.2058 263.73 52.9392 263.5C51.3475 262.13 49.9722 260.736 48.9942 259.367C48.0256 258.011 47.3678 256.569 47.3944 255.133C47.3941 254.356 47.3817 253.58 47.355 252.808L47.2338 250.478C46.7742 243.805 44.8428 234.211 42.0313 224.904C39.4316 216.299 36.4499 208.707 32.6051 202.669M28.6709 198.052C28.6709 198.052 28.6709 198.052 32.6051 202.669M28.6709 198.052L32.6051 202.669M146.615 465.166C146.615 460.594 142.75 456.887 137.982 456.887H137.172C132.404 456.887 128.538 460.594 128.538 465.166C128.538 469.737 132.404 473.444 137.172 473.444H137.982C142.75 473.444 146.615 469.737 146.615 465.166ZM74.3077 404.842C74.3077 400.27 70.4422 396.564 65.6739 396.564H64.8646C60.0963 396.564 56.2308 400.27 56.2308 404.842C56.2308 409.414 60.0963 413.12 64.8646 413.12H65.6739C70.4422 413.12 74.3077 409.414 74.3077 404.842ZM38.1538 338.617C38.1538 334.045 34.2883 330.339 29.52 330.339H28.7108C23.9424 330.339 20.0769 334.045 20.0769 338.617C20.0769 343.189 23.9424 346.895 28.7108 346.895H29.52C34.2883 346.895 38.1538 343.189 38.1538 338.617ZM182.769 404.842C182.769 400.27 178.904 396.564 174.135 396.564H173.326C168.558 396.564 164.692 400.27 164.692 404.842C164.692 409.414 168.558 413.12 173.326 413.12H174.135C178.904 413.12 182.769 409.414 182.769 404.842ZM218.923 322.06C218.923 317.489 215.058 313.782 210.289 313.782H209.48C204.712 313.782 200.846 317.489 200.846 322.06C200.846 326.632 204.712 330.339 209.48 330.339H210.289C215.058 330.339 218.923 326.632 218.923 322.06Z" stroke="#E9EBF8" stroke-width="3"/>
<path d="M28.6709 198.052C20.8862 189.528 20.1259 153.679 20.1259 153.679L19.7806 86.668V84.0342C22.8833 33.9924 64.9412 2.00057 119.659 2L122.241 2.02829C176.311 3.16778 219.777 39.9611 219.778 85.2392L219.484 152.552C219.484 152.552 219.484 171.415 210.922 193.79C209.759 196.039 208.375 197.34 207.019 199.667C203.143 205.511 200.672 213.304 198.06 222C195.281 231.25 193.189 240.726 192.412 247.031L192.272 248.248C192.04 250.524 191.918 252.829 191.918 255.154C191.962 256.632 191.198 258.116 190.106 259.495C188.985 260.912 187.401 262.37 185.561 263.819C185.41 263.938 185.256 264.058 185.101 264.177C193.925 264.916 200.846 272.018 200.846 280.67C200.846 289.814 208.577 297.226 218.114 297.226H219.732C229.269 297.226 237 304.638 237 313.782V330.339C237 339.482 229.269 346.895 219.732 346.895H200.037C190.5 346.895 182.769 339.482 182.769 330.339V289.336C182.769 284.55 178.723 280.67 173.731 280.67C168.739 280.67 164.692 284.55 164.692 289.336V363.451C164.692 372.595 172.423 380.007 181.96 380.007H183.578C193.115 380.007 200.846 387.42 200.846 396.564V413.12C200.846 422.264 193.115 429.676 183.578 429.676H163.883C154.346 429.676 146.615 422.264 146.615 413.12V322.448C146.615 317.662 142.569 313.782 137.577 313.782C132.585 313.782 128.538 317.662 128.538 322.448V423.775C128.538 432.919 136.269 440.331 145.806 440.331H147.425C156.961 440.331 164.692 447.744 164.692 456.887V473.444C164.692 482.587 156.961 490 147.425 490H127.729C118.193 490 110.462 482.587 110.462 473.444V322.448C110.462 317.662 106.415 313.782 101.423 313.782C96.4313 313.782 92.3846 317.662 92.3846 322.448V413.12C92.3846 422.264 84.6536 429.676 75.1169 429.676H55.4215C45.8848 429.676 38.1538 422.264 38.1538 413.12V396.564C38.1538 387.42 45.8849 380.007 55.4216 380.007H57.04C66.5767 380.007 74.3077 372.595 74.3077 363.451V305.892C74.3077 301.106 70.261 297.226 65.2692 297.226C60.2774 297.226 56.2308 301.106 56.2308 305.892V346.895C56.2308 356.039 48.4998 363.451 38.9631 363.451H19.2677C9.731 363.451 2 356.039 2 346.895V330.339C2 321.195 9.731 313.782 19.2677 313.782H20.8862C30.4228 313.782 38.1538 306.37 38.1538 297.226V280.67C38.1538 272.063 45.0028 264.991 53.76 264.189C53.4796 263.959 53.2058 263.73 52.9392 263.5C51.3475 262.13 49.9722 260.736 48.9942 259.367C48.0256 258.011 47.3678 256.569 47.3944 255.133C47.3941 254.356 47.3817 253.58 47.355 252.808L47.2338 250.478C46.7742 243.805 44.8428 234.211 42.0313 224.904C39.4316 216.299 36.4499 208.707 32.6051 202.669M28.6709 198.052C28.6709 198.052 28.6709 198.052 32.6051 202.669M28.6709 198.052L32.6051 202.669M146.615 465.166C146.615 460.594 142.75 456.887 137.982 456.887H137.172C132.404 456.887 128.538 460.594 128.538 465.166C128.538 469.737 132.404 473.444 137.172 473.444H137.982C142.75 473.444 146.615 469.737 146.615 465.166ZM74.3077 404.842C74.3077 400.27 70.4422 396.564 65.6739 396.564H64.8646C60.0963 396.564 56.2308 400.27 56.2308 404.842C56.2308 409.414 60.0963 413.12 64.8646 413.12H65.6739C70.4422 413.12 74.3077 409.414 74.3077 404.842ZM38.1538 338.617C38.1538 334.045 34.2883 330.339 29.52 330.339H28.7108C23.9424 330.339 20.0769 334.045 20.0769 338.617C20.0769 343.189 23.9424 346.895 28.7108 346.895H29.52C34.2883 346.895 38.1538 343.189 38.1538 338.617ZM182.769 404.842C182.769 400.27 178.904 396.564 174.135 396.564H173.326C168.558 396.564 164.692 400.27 164.692 404.842C164.692 409.414 168.558 413.12 173.326 413.12H174.135C178.904 413.12 182.769 409.414 182.769 404.842ZM218.923 322.06C218.923 317.489 215.058 313.782 210.289 313.782H209.48C204.712 313.782 200.846 317.489 200.846 322.06C200.846 326.632 204.712 330.339 209.48 330.339H210.289C215.058 330.339 218.923 326.632 218.923 322.06Z" stroke="#32E7E1" stroke-width="3"/>
<rect x="33.8232" y="114.24" width="171.354" height="70.76" rx="10" fill="#025159"/>
<rect x="33.8232" y="114.24" width="171.354" height="70.76" rx="10" stroke="#32E7E1" stroke-width="3"/>
<rect x="33.8232" y="114.24" width="171.354" height="70.76" rx="10" stroke="#32E7E1" stroke-width="3"/>
<path d="M86.5001 131.162C86.7205 128.857 88.8633 127.193 91.0552 127.94C95.6209 129.496 99.6591 132.304 102.653 136.064C106.527 140.929 108.369 147.03 107.813 153.153C107.257 159.277 104.343 164.973 99.652 169.11C94.9607 173.247 88.8358 175.52 82.4959 175.478C76.156 175.435 70.066 173.08 65.4378 168.881C60.8097 164.682 57.9826 158.946 57.5191 152.816C57.0557 146.686 58.9899 140.61 62.9369 135.798C66.0547 131.997 70.2479 129.204 74.9602 127.734C77.0555 127.08 79.0986 128.593 79.4448 130.76L80.3687 136.544C80.7195 138.74 79.1461 140.743 77.2061 141.83C76.0277 142.49 74.9764 143.363 74.1144 144.414C72.4019 146.502 71.5627 149.138 71.7637 151.798C71.9648 154.458 73.1914 156.946 75.1995 158.768C77.2076 160.59 79.8499 161.612 82.6006 161.63C85.3514 161.649 88.0089 160.663 90.0443 158.868C92.0798 157.073 93.3439 154.601 93.5852 151.944C93.8265 149.287 93.0272 146.64 91.3465 144.53C90.5469 143.526 89.8224 142.672 88.9904 142.006C87.3487 140.69 85.76 138.903 85.9603 136.809L86.5001 131.162Z" fill="#32E7E1" fill-opacity="0.51" stroke="#32E7E1" stroke-width="2"/>
<path d="M159.461 131.169C159.681 128.863 161.823 127.2 164.015 127.947C168.581 129.504 172.62 132.313 175.615 136.074C179.49 140.939 181.333 147.04 180.778 153.164C180.224 159.287 177.311 164.983 172.621 169.119C167.93 173.255 161.806 175.527 155.466 175.483C149.126 175.439 143.036 173.083 138.407 168.883C133.778 164.682 130.949 158.946 130.485 152.816C130.02 146.686 131.953 140.61 135.899 135.799C139.016 131.999 143.208 129.207 147.92 127.737C150.016 127.084 152.059 128.598 152.406 130.765L153.331 136.549C153.682 138.745 152.109 140.747 150.169 141.834C148.991 142.494 147.94 143.367 147.078 144.418C145.366 146.505 144.527 149.141 144.729 151.801C144.931 154.461 146.158 156.95 148.166 158.772C150.175 160.594 152.817 161.617 155.568 161.636C158.319 161.655 160.976 160.669 163.011 158.875C165.046 157.08 166.31 154.609 166.55 151.952C166.791 149.295 165.991 146.648 164.31 144.537C163.51 143.533 162.786 142.679 161.954 142.012C160.312 140.697 158.723 138.909 158.922 136.815L159.461 131.169Z" fill="#32E7E1" fill-opacity="0.5" stroke="#32E7E1" stroke-width="2"/>
<path d="M156 124.382V134.854V149.515" stroke="#32E7E1" stroke-linecap="round"/>
<path d="M83 124V134.472V149.133" stroke="#32E7E1" stroke-linecap="round"/>
</svg>
